<svg xmlns="http://www.w3.org/2000/svg" xmlns:xlink="http://www.w3.org/1999/xlink" width="1920" zoomAndPan="magnify" viewBox="0 0 1440 809.999993" height="1080" preserveAspectRatio="xMidYMid meet" version="1.0"><defs><g/><clipPath id="5bbf6855ee"><path d="M 720.152344 151.292969 L 875.402344 151.292969 L 875.402344 347.792969 L 720.152344 347.792969 Z M 720.152344 151.292969 " clip-rule="nonzero"/></clipPath><clipPath id="e35faaf07b"><path d="M 564.59375 151.398438 L 719.84375 151.398438 L 719.84375 347.898438 L 564.59375 347.898438 Z M 564.59375 151.398438 " clip-rule="nonzero"/></clipPath><clipPath id="649bee2db3"><path d="M 621.695312 94.191406 L 818.195312 94.191406 L 818.195312 249.441406 L 621.695312 249.441406 Z M 621.695312 94.191406 " clip-rule="nonzero"/></clipPath><clipPath id="8cab6d1b05"><path d="M 621.800781 249.746094 L 818.300781 249.746094 L 818.300781 404.996094 L 621.800781 404.996094 Z M 621.800781 249.746094 " clip-rule="nonzero"/></clipPath><clipPath id="662c77bbdb"><rect x="0" width="1281" y="0" height="157"/></clipPath><clipPath id="0c87ad4e5b"><rect x="0" width="858" y="0" height="66"/></clipPath></defs><path stroke-linecap="butt" transform="matrix(0.75, 0, 0, 0.75, 1172.399587, 680.467498)" fill="none" stroke-linejoin="miter" d="M -0.00153299 2.00167 L 228.633895 2.00167 " stroke="#091222" stroke-width="4" stroke-opacity="1" stroke-miterlimit="4"/><path stroke-linecap="butt" transform="matrix(0.75, -0.000000000000000372, 0.000000000000000372, 0.75, 96.359605, 680.912554)" fill="none" stroke-linejoin="miter" d="M -0.000307166 2.002012 L 219.879912 2.002012 " stroke="#091222" stroke-width="4" stroke-opacity="1" stroke-miterlimit="4"/><g clip-path="url(#5bbf6855ee)"><path fill="#38b6ff" d="M 828.300781 347.152344 C 828.371094 347.199219 828.441406 347.261719 828.515625 347.308594 C 828.734375 347.441406 828.96875 347.550781 829.203125 347.640625 C 829.246094 347.65625 829.292969 347.660156 829.335938 347.675781 C 829.535156 347.742188 829.730469 347.796875 829.933594 347.832031 C 830.019531 347.847656 830.109375 347.847656 830.195312 347.855469 C 830.359375 347.875 830.515625 347.890625 830.679688 347.890625 C 830.78125 347.886719 830.886719 347.867188 830.992188 347.863281 C 831.136719 347.847656 831.285156 347.835938 831.429688 347.804688 C 831.539062 347.78125 831.640625 347.75 831.746094 347.71875 C 831.886719 347.675781 832.027344 347.632812 832.167969 347.578125 C 832.265625 347.535156 832.363281 347.488281 832.460938 347.4375 C 832.597656 347.367188 832.730469 347.292969 832.863281 347.207031 C 832.90625 347.175781 832.957031 347.15625 833 347.125 C 833.050781 347.089844 833.085938 347.042969 833.132812 347.003906 C 833.191406 346.957031 833.257812 346.925781 833.3125 346.875 L 874.027344 310.875 C 874.898438 310.105469 875.402344 308.996094 875.402344 307.828125 L 875.402344 191.347656 C 875.402344 190.183594 874.898438 189.074219 874.027344 188.296875 L 833.308594 152.308594 C 833.296875 152.296875 833.277344 152.289062 833.265625 152.277344 C 833.25 152.265625 833.242188 152.253906 833.230469 152.242188 C 833.171875 152.191406 833.101562 152.160156 833.042969 152.113281 C 832.902344 152.007812 832.761719 151.90625 832.613281 151.820312 C 832.519531 151.769531 832.425781 151.726562 832.328125 151.683594 C 832.191406 151.621094 832.058594 151.558594 831.917969 151.511719 C 831.8125 151.472656 831.703125 151.449219 831.597656 151.425781 C 831.457031 151.390625 831.320312 151.359375 831.179688 151.339844 C 831.070312 151.324219 830.957031 151.316406 830.847656 151.308594 C 830.707031 151.300781 830.566406 151.300781 830.425781 151.304688 C 830.3125 151.3125 830.207031 151.320312 830.097656 151.335938 C 829.957031 151.351562 829.816406 151.378906 829.675781 151.414062 C 829.570312 151.4375 829.464844 151.464844 829.359375 151.5 C 829.222656 151.542969 829.09375 151.59375 828.960938 151.652344 C 828.859375 151.699219 828.753906 151.746094 828.652344 151.800781 C 828.53125 151.867188 828.414062 151.949219 828.296875 152.03125 C 828.199219 152.101562 828.101562 152.164062 828.011719 152.242188 C 827.976562 152.265625 827.945312 152.28125 827.917969 152.308594 L 721.378906 246.539062 C 721.367188 246.550781 721.355469 246.566406 721.347656 246.574219 C 721.191406 246.714844 721.050781 246.859375 720.921875 247.015625 C 720.917969 247.023438 720.910156 247.027344 720.90625 247.035156 C 720.875 247.070312 720.855469 247.109375 720.828125 247.140625 C 720.800781 247.179688 720.777344 247.21875 720.75 247.257812 C 720.660156 247.386719 720.574219 247.519531 720.5 247.65625 C 720.488281 247.683594 720.46875 247.699219 720.457031 247.722656 C 720.433594 247.769531 720.417969 247.816406 720.398438 247.863281 C 720.386719 247.890625 720.367188 247.917969 720.355469 247.949219 C 720.335938 247.992188 720.320312 248.039062 720.300781 248.082031 C 720.257812 248.183594 720.226562 248.285156 720.191406 248.386719 C 720.171875 248.445312 720.152344 248.507812 720.140625 248.566406 C 720.125 248.617188 720.113281 248.664062 720.101562 248.714844 C 720.097656 248.734375 720.09375 248.757812 720.089844 248.78125 C 720.078125 248.835938 720.066406 248.890625 720.058594 248.945312 C 720.050781 248.988281 720.042969 249.03125 720.039062 249.074219 C 720.015625 249.246094 720 249.417969 720 249.589844 C 720 249.589844 720 249.59375 720 249.59375 C 720 249.59375 720 249.597656 720 249.597656 C 720 249.769531 720.011719 249.941406 720.039062 250.113281 C 720.042969 250.160156 720.050781 250.199219 720.058594 250.242188 C 720.066406 250.296875 720.078125 250.351562 720.089844 250.40625 C 720.09375 250.429688 720.097656 250.453125 720.101562 250.476562 C 720.113281 250.527344 720.125 250.574219 720.140625 250.625 C 720.152344 250.679688 720.171875 250.742188 720.191406 250.796875 C 720.222656 250.902344 720.257812 251.007812 720.300781 251.109375 C 720.320312 251.15625 720.335938 251.195312 720.351562 251.238281 C 720.367188 251.269531 720.386719 251.296875 720.398438 251.328125 C 720.421875 251.371094 720.433594 251.417969 720.457031 251.464844 C 720.46875 251.488281 720.488281 251.507812 720.5 251.53125 C 720.574219 251.664062 720.65625 251.796875 720.746094 251.925781 C 720.773438 251.964844 720.800781 252.003906 720.828125 252.046875 C 720.855469 252.078125 720.875 252.117188 720.902344 252.148438 C 720.910156 252.160156 720.921875 252.167969 720.929688 252.175781 C 721.054688 252.328125 721.195312 252.472656 721.34375 252.609375 C 721.355469 252.617188 721.363281 252.632812 721.378906 252.640625 L 827.859375 346.824219 L 827.859375 346.828125 L 827.910156 346.875 C 828.035156 346.980469 828.171875 347.0625 828.300781 347.152344 Z M 867.257812 239.132812 L 867.257812 260.03125 C 864.335938 264.585938 849.554688 285.527344 825.390625 285.46875 C 832.125 263.097656 831.957031 239.863281 824.878906 213.695312 C 849.5625 213.261719 864.300781 234.4375 867.257812 239.132812 Z M 817.113281 284.660156 C 796.359375 280.59375 750.722656 258.410156 733.09375 249.589844 C 750.601562 240.828125 795.734375 218.886719 816.683594 214.605469 C 823.832031 240.339844 823.972656 262.96875 817.113281 284.660156 Z M 814.175781 206.292969 C 814.230469 206.457031 814.277344 206.617188 814.332031 206.785156 C 798.113281 210.324219 770.390625 222.589844 749.566406 232.480469 L 815.5 174.15625 C 812.179688 183.402344 810.398438 194.734375 814.175781 206.292969 Z M 814.355469 292.398438 C 814.324219 292.476562 814.296875 292.558594 814.261719 292.636719 C 812.679688 296.605469 812.023438 300.78125 812.023438 304.988281 C 812.023438 312.183594 813.945312 319.445312 816.421875 325.839844 L 749.566406 266.699219 C 770.402344 276.59375 798.136719 288.867188 814.355469 292.398438 Z M 831.441406 337.65625 C 826.445312 329.546875 816.082031 310.039062 821.828125 295.660156 C 822.105469 294.960938 822.375 294.257812 822.640625 293.558594 C 843.855469 294.84375 858.921875 282.726562 867.261719 273.410156 L 867.261719 305.992188 Z M 867.257812 193.183594 L 867.257812 225.769531 C 858.902344 216.433594 843.792969 204.28125 822.507812 205.625 C 822.3125 205.003906 822.117188 204.386719 821.914062 203.761719 C 816.222656 186.335938 826.316406 168.585938 831.25 161.351562 Z M 867.257812 193.183594 " fill-opacity="1" fill-rule="nonzero"/></g><g clip-path="url(#e35faaf07b)"><path fill="#38b6ff" d="M 611.691406 152.035156 C 611.621094 151.988281 611.554688 151.925781 611.476562 151.878906 C 611.257812 151.746094 611.027344 151.636719 610.789062 151.546875 C 610.746094 151.535156 610.699219 151.527344 610.65625 151.511719 C 610.460938 151.445312 610.265625 151.390625 610.0625 151.355469 C 609.972656 151.339844 609.882812 151.339844 609.796875 151.332031 C 609.636719 151.3125 609.476562 151.300781 609.316406 151.300781 C 609.210938 151.300781 609.109375 151.320312 609 151.324219 C 608.855469 151.339844 608.707031 151.351562 608.566406 151.382812 C 608.457031 151.40625 608.351562 151.4375 608.246094 151.46875 C 608.105469 151.511719 607.96875 151.554688 607.828125 151.609375 C 607.730469 151.652344 607.628906 151.699219 607.535156 151.75 C 607.394531 151.820312 607.261719 151.894531 607.132812 151.980469 C 607.089844 152.011719 607.039062 152.03125 606.996094 152.0625 C 606.945312 152.097656 606.90625 152.144531 606.859375 152.183594 C 606.804688 152.230469 606.738281 152.261719 606.683594 152.3125 L 565.96875 188.3125 C 565.09375 189.082031 564.59375 190.191406 564.59375 191.359375 L 564.59375 307.839844 C 564.59375 309.003906 565.09375 310.113281 565.96875 310.890625 L 606.6875 346.878906 C 606.699219 346.890625 606.71875 346.898438 606.730469 346.914062 C 606.742188 346.921875 606.753906 346.933594 606.761719 346.945312 C 606.820312 346.996094 606.890625 347.027344 606.953125 347.074219 C 607.089844 347.179688 607.230469 347.28125 607.378906 347.367188 C 607.472656 347.417969 607.570312 347.460938 607.664062 347.503906 C 607.800781 347.566406 607.9375 347.628906 608.078125 347.675781 C 608.183594 347.714844 608.292969 347.738281 608.398438 347.761719 C 608.535156 347.796875 608.671875 347.828125 608.8125 347.847656 C 608.925781 347.863281 609.035156 347.871094 609.144531 347.878906 C 609.289062 347.886719 609.425781 347.890625 609.570312 347.882812 C 609.679688 347.875 609.785156 347.867188 609.898438 347.851562 C 610.039062 347.835938 610.175781 347.808594 610.316406 347.773438 C 610.425781 347.75 610.53125 347.722656 610.632812 347.6875 C 610.769531 347.644531 610.902344 347.59375 611.03125 347.535156 C 611.136719 347.488281 611.238281 347.441406 611.339844 347.386719 C 611.464844 347.320312 611.578125 347.238281 611.699219 347.15625 C 611.792969 347.085938 611.890625 347.023438 611.984375 346.945312 C 612.015625 346.921875 612.046875 346.90625 612.078125 346.878906 L 718.613281 252.648438 C 718.625 252.636719 718.636719 252.621094 718.648438 252.613281 C 718.800781 252.472656 718.941406 252.328125 719.070312 252.171875 C 719.074219 252.164062 719.082031 252.160156 719.089844 252.152344 C 719.117188 252.117188 719.136719 252.078125 719.164062 252.046875 C 719.195312 252.007812 719.214844 251.96875 719.242188 251.929688 C 719.335938 251.800781 719.417969 251.667969 719.492188 251.53125 C 719.503906 251.503906 719.523438 251.488281 719.535156 251.464844 C 719.558594 251.417969 719.578125 251.371094 719.597656 251.324219 C 719.609375 251.296875 719.628906 251.269531 719.636719 251.238281 C 719.65625 251.195312 719.675781 251.148438 719.695312 251.105469 C 719.734375 251.003906 719.769531 250.902344 719.800781 250.800781 C 719.820312 250.742188 719.839844 250.679688 719.855469 250.621094 C 719.867188 250.570312 719.878906 250.523438 719.890625 250.472656 C 719.898438 250.453125 719.898438 250.429688 719.90625 250.40625 C 719.917969 250.355469 719.925781 250.296875 719.933594 250.242188 C 719.941406 250.199219 719.953125 250.15625 719.957031 250.113281 C 719.976562 249.941406 719.992188 249.769531 719.992188 249.597656 C 719.992188 249.597656 719.992188 249.59375 719.992188 249.59375 C 719.992188 249.59375 719.992188 249.589844 719.992188 249.589844 C 719.992188 249.417969 719.980469 249.246094 719.957031 249.074219 C 719.953125 249.027344 719.941406 248.988281 719.933594 248.945312 C 719.925781 248.890625 719.917969 248.835938 719.90625 248.78125 C 719.898438 248.757812 719.898438 248.734375 719.890625 248.710938 C 719.878906 248.660156 719.871094 248.613281 719.855469 248.5625 C 719.839844 248.507812 719.820312 248.445312 719.804688 248.390625 C 719.769531 248.285156 719.738281 248.179688 719.691406 248.078125 C 719.675781 248.03125 719.65625 247.992188 719.640625 247.949219 C 719.628906 247.917969 719.609375 247.890625 719.597656 247.859375 C 719.574219 247.816406 719.558594 247.769531 719.535156 247.722656 C 719.523438 247.699219 719.503906 247.679688 719.492188 247.65625 C 719.417969 247.523438 719.335938 247.390625 719.25 247.261719 C 719.21875 247.222656 719.195312 247.183594 719.164062 247.140625 C 719.140625 247.109375 719.117188 247.070312 719.089844 247.039062 C 719.082031 247.027344 719.074219 247.023438 719.066406 247.011719 C 718.9375 246.859375 718.800781 246.714844 718.648438 246.582031 C 718.636719 246.570312 718.628906 246.554688 718.617188 246.546875 L 612.136719 152.363281 L 612.132812 152.359375 L 612.082031 152.3125 C 611.957031 152.210938 611.824219 152.125 611.691406 152.035156 Z M 572.734375 260.054688 L 572.734375 239.15625 C 575.65625 234.605469 590.441406 213.660156 614.605469 213.71875 C 607.867188 236.089844 608.039062 259.324219 615.113281 285.492188 C 590.433594 285.925781 575.695312 264.75 572.734375 260.054688 Z M 622.878906 214.527344 C 643.636719 218.59375 689.273438 240.78125 706.902344 249.597656 C 689.390625 258.359375 644.257812 280.300781 623.308594 284.582031 C 616.160156 258.847656 616.019531 236.21875 622.878906 214.527344 Z M 625.816406 292.894531 C 625.761719 292.730469 625.714844 292.570312 625.660156 292.402344 C 641.882812 288.863281 669.601562 276.597656 690.429688 266.707031 L 624.492188 325.03125 C 627.816406 315.785156 629.59375 304.453125 625.816406 292.894531 Z M 625.636719 206.789062 C 625.667969 206.710938 625.699219 206.628906 625.730469 206.550781 C 627.3125 202.582031 627.96875 198.40625 627.96875 194.199219 C 627.96875 187.003906 626.050781 179.742188 623.570312 173.347656 L 690.429688 232.488281 C 669.589844 222.59375 641.855469 210.320312 625.636719 206.789062 Z M 608.554688 161.53125 C 613.550781 169.640625 623.910156 189.148438 618.167969 203.527344 C 617.886719 204.230469 617.617188 204.929688 617.351562 205.628906 C 596.136719 204.34375 581.074219 216.460938 572.730469 225.777344 L 572.730469 193.195312 Z M 572.734375 306.003906 L 572.734375 273.417969 C 581.09375 282.757812 596.203125 294.90625 617.484375 293.5625 C 617.683594 294.183594 617.875 294.800781 618.082031 295.425781 C 623.769531 312.851562 613.679688 330.601562 608.746094 337.835938 Z M 572.734375 306.003906 " fill-opacity="1" fill-rule="nonzero"/></g><g clip-path="url(#649bee2db3)"><path fill="#38b6ff" d="M 817.554688 141.289062 C 817.605469 141.21875 817.664062 141.152344 817.710938 141.074219 C 817.84375 140.855469 817.953125 140.625 818.042969 140.386719 C 818.058594 140.34375 818.066406 140.296875 818.078125 140.253906 C 818.144531 140.054688 818.199219 139.863281 818.234375 139.660156 C 818.25 139.570312 818.25 139.480469 818.261719 139.394531 C 818.277344 139.234375 818.292969 139.074219 818.292969 138.910156 C 818.289062 138.808594 818.273438 138.703125 818.265625 138.597656 C 818.253906 138.453125 818.238281 138.304688 818.207031 138.160156 C 818.1875 138.054688 818.152344 137.949219 818.121094 137.84375 C 818.078125 137.703125 818.039062 137.566406 817.980469 137.425781 C 817.9375 137.324219 817.890625 137.226562 817.839844 137.132812 C 817.769531 136.992188 817.695312 136.859375 817.609375 136.730469 C 817.578125 136.683594 817.558594 136.636719 817.527344 136.589844 C 817.492188 136.542969 817.445312 136.503906 817.410156 136.457031 C 817.363281 136.402344 817.328125 136.335938 817.277344 136.28125 L 781.28125 95.5625 C 780.507812 94.691406 779.398438 94.191406 778.230469 94.191406 L 661.753906 94.191406 C 660.585938 94.191406 659.476562 94.691406 658.703125 95.5625 L 622.710938 136.28125 C 622.699219 136.296875 622.691406 136.316406 622.679688 136.328125 C 622.667969 136.339844 622.65625 136.347656 622.648438 136.359375 C 622.59375 136.417969 622.5625 136.488281 622.515625 136.550781 C 622.414062 136.6875 622.308594 136.828125 622.226562 136.976562 C 622.171875 137.070312 622.132812 137.164062 622.085938 137.261719 C 622.023438 137.398438 621.960938 137.53125 621.914062 137.671875 C 621.878906 137.78125 621.851562 137.886719 621.828125 137.996094 C 621.792969 138.132812 621.761719 138.269531 621.742188 138.410156 C 621.726562 138.523438 621.71875 138.632812 621.710938 138.742188 C 621.703125 138.882812 621.703125 139.023438 621.710938 139.164062 C 621.714844 139.277344 621.722656 139.382812 621.738281 139.492188 C 621.757812 139.632812 621.785156 139.773438 621.816406 139.914062 C 621.839844 140.023438 621.867188 140.128906 621.902344 140.230469 C 621.945312 140.367188 622 140.496094 622.058594 140.628906 C 622.105469 140.730469 622.152344 140.835938 622.207031 140.9375 C 622.273438 141.058594 622.351562 141.175781 622.433594 141.292969 C 622.503906 141.390625 622.566406 141.488281 622.644531 141.582031 C 622.667969 141.613281 622.6875 141.644531 622.714844 141.675781 L 716.945312 248.210938 C 716.953125 248.222656 716.96875 248.234375 716.976562 248.242188 C 717.117188 248.398438 717.261719 248.539062 717.417969 248.667969 C 717.425781 248.671875 717.433594 248.679688 717.4375 248.683594 C 717.472656 248.714844 717.511719 248.734375 717.546875 248.761719 C 717.582031 248.789062 717.621094 248.8125 717.660156 248.839844 C 717.789062 248.929688 717.921875 249.015625 718.0625 249.089844 C 718.085938 249.101562 718.101562 249.121094 718.128906 249.132812 C 718.171875 249.15625 718.21875 249.171875 718.265625 249.191406 C 718.296875 249.207031 718.324219 249.226562 718.351562 249.234375 C 718.394531 249.253906 718.441406 249.273438 718.484375 249.292969 C 718.585938 249.332031 718.6875 249.367188 718.789062 249.398438 C 718.851562 249.417969 718.910156 249.4375 718.972656 249.453125 C 719.019531 249.464844 719.066406 249.476562 719.117188 249.488281 C 719.140625 249.492188 719.160156 249.496094 719.183594 249.5 C 719.238281 249.511719 719.292969 249.523438 719.347656 249.53125 C 719.390625 249.539062 719.433594 249.546875 719.476562 249.554688 C 719.648438 249.574219 719.820312 249.589844 719.996094 249.589844 C 719.996094 249.589844 720 249.589844 720 249.589844 C 720.171875 249.589844 720.34375 249.578125 720.515625 249.554688 C 720.5625 249.546875 720.605469 249.539062 720.644531 249.53125 C 720.699219 249.523438 720.753906 249.511719 720.8125 249.5 C 720.832031 249.496094 720.859375 249.492188 720.878906 249.488281 C 720.929688 249.476562 720.980469 249.464844 721.027344 249.453125 C 721.085938 249.4375 721.144531 249.417969 721.199219 249.398438 C 721.304688 249.367188 721.410156 249.332031 721.515625 249.289062 C 721.558594 249.273438 721.601562 249.253906 721.640625 249.238281 C 721.671875 249.226562 721.703125 249.207031 721.730469 249.191406 C 721.773438 249.171875 721.820312 249.15625 721.867188 249.132812 C 721.890625 249.121094 721.910156 249.101562 721.933594 249.089844 C 722.070312 249.015625 722.199219 248.933594 722.328125 248.84375 C 722.367188 248.816406 722.410156 248.789062 722.449219 248.761719 C 722.484375 248.738281 722.519531 248.714844 722.550781 248.6875 C 722.5625 248.679688 722.570312 248.671875 722.578125 248.664062 C 722.730469 248.535156 722.875 248.394531 723.011719 248.246094 C 723.019531 248.234375 723.035156 248.226562 723.046875 248.214844 L 817.230469 141.734375 L 817.230469 141.730469 L 817.277344 141.679688 C 817.382812 141.554688 817.464844 141.421875 817.554688 141.289062 Z M 709.535156 102.332031 L 730.433594 102.332031 C 734.988281 105.253906 755.929688 120.039062 755.871094 144.203125 C 733.503906 137.464844 710.265625 137.632812 684.097656 144.710938 C 683.664062 120.03125 704.839844 105.292969 709.535156 102.332031 Z M 755.0625 152.476562 C 751 173.234375 728.8125 218.871094 719.992188 236.5 C 711.230469 218.988281 689.289062 173.855469 685.007812 152.90625 C 710.742188 145.757812 733.371094 145.617188 755.0625 152.476562 Z M 676.695312 155.414062 C 676.859375 155.359375 677.019531 155.3125 677.1875 155.257812 C 680.726562 171.480469 692.992188 199.199219 702.882812 220.027344 L 644.558594 154.089844 C 653.804688 157.410156 665.136719 159.191406 676.695312 155.414062 Z M 762.800781 155.234375 C 762.882812 155.265625 762.960938 155.296875 763.042969 155.328125 C 767.007812 156.910156 771.183594 157.566406 775.394531 157.566406 C 782.585938 157.566406 789.851562 155.644531 796.242188 153.167969 L 737.101562 220.027344 C 746.996094 199.1875 759.269531 171.453125 762.800781 155.234375 Z M 808.058594 138.148438 C 799.949219 143.144531 780.445312 153.507812 766.0625 147.761719 C 765.363281 147.484375 764.660156 147.214844 763.960938 146.949219 C 765.246094 125.734375 753.128906 110.671875 743.8125 102.328125 L 776.398438 102.328125 Z M 663.585938 102.332031 L 696.171875 102.332031 C 686.835938 110.691406 674.6875 125.796875 676.027344 147.082031 C 675.410156 147.28125 674.789062 147.472656 674.164062 147.675781 C 656.742188 153.367188 638.988281 143.273438 631.753906 138.34375 Z M 663.585938 102.332031 " fill-opacity="1" fill-rule="nonzero"/></g><g clip-path="url(#8cab6d1b05)"><path fill="#38b6ff" d="M 622.441406 357.898438 C 622.390625 357.96875 622.328125 358.035156 622.28125 358.113281 C 622.148438 358.332031 622.039062 358.5625 621.953125 358.800781 C 621.9375 358.84375 621.929688 358.890625 621.914062 358.933594 C 621.851562 359.132812 621.792969 359.328125 621.757812 359.527344 C 621.742188 359.617188 621.742188 359.707031 621.734375 359.792969 C 621.71875 359.957031 621.703125 360.113281 621.703125 360.277344 C 621.703125 360.378906 621.722656 360.484375 621.730469 360.589844 C 621.742188 360.734375 621.757812 360.882812 621.785156 361.027344 C 621.808594 361.132812 621.839844 361.238281 621.871094 361.34375 C 621.914062 361.484375 621.957031 361.621094 622.011719 361.761719 C 622.054688 361.863281 622.105469 361.960938 622.152344 362.054688 C 622.222656 362.195312 622.300781 362.328125 622.386719 362.457031 C 622.414062 362.503906 622.433594 362.550781 622.464844 362.597656 C 622.5 362.644531 622.546875 362.683594 622.585938 362.730469 C 622.632812 362.785156 622.667969 362.851562 622.714844 362.90625 L 658.714844 403.625 C 659.484375 404.496094 660.597656 404.996094 661.761719 404.996094 L 778.242188 404.996094 C 779.40625 404.996094 780.519531 404.496094 781.292969 403.625 L 817.28125 362.90625 C 817.296875 362.890625 817.304688 362.871094 817.316406 362.859375 C 817.324219 362.847656 817.335938 362.839844 817.347656 362.828125 C 817.398438 362.769531 817.429688 362.699219 817.476562 362.636719 C 817.582031 362.5 817.683594 362.359375 817.769531 362.210938 C 817.820312 362.117188 817.863281 362.023438 817.90625 361.925781 C 817.972656 361.789062 818.03125 361.65625 818.078125 361.515625 C 818.117188 361.40625 818.140625 361.300781 818.167969 361.191406 C 818.199219 361.054688 818.234375 360.917969 818.253906 360.777344 C 818.265625 360.664062 818.273438 360.554688 818.28125 360.445312 C 818.289062 360.304688 818.292969 360.164062 818.285156 360.023438 C 818.28125 359.910156 818.269531 359.804688 818.253906 359.695312 C 818.238281 359.554688 818.210938 359.414062 818.179688 359.273438 C 818.152344 359.164062 818.125 359.058594 818.09375 358.957031 C 818.046875 358.820312 817.996094 358.691406 817.9375 358.558594 C 817.890625 358.457031 817.84375 358.351562 817.789062 358.25 C 817.722656 358.128906 817.640625 358.011719 817.558594 357.894531 C 817.492188 357.796875 817.425781 357.699219 817.351562 357.605469 C 817.324219 357.574219 817.308594 357.542969 817.28125 357.511719 L 723.050781 250.976562 C 723.039062 250.964844 723.027344 250.953125 723.015625 250.945312 C 722.878906 250.789062 722.730469 250.648438 722.574219 250.519531 C 722.566406 250.515625 722.5625 250.507812 722.554688 250.503906 C 722.519531 250.472656 722.484375 250.453125 722.449219 250.425781 C 722.410156 250.398438 722.371094 250.375 722.332031 250.347656 C 722.203125 250.257812 722.070312 250.171875 721.933594 250.097656 C 721.910156 250.085938 721.890625 250.066406 721.867188 250.054688 C 721.820312 250.03125 721.773438 250.015625 721.726562 249.996094 C 721.699219 249.980469 721.671875 249.960938 721.640625 249.953125 C 721.597656 249.933594 721.554688 249.914062 721.507812 249.894531 C 721.40625 249.855469 721.308594 249.820312 721.203125 249.789062 C 721.144531 249.769531 721.085938 249.75 721.023438 249.734375 C 720.972656 249.722656 720.925781 249.710938 720.878906 249.699219 C 720.855469 249.695312 720.832031 249.691406 720.8125 249.6875 C 720.757812 249.675781 720.699219 249.664062 720.644531 249.65625 C 720.605469 249.648438 720.558594 249.640625 720.515625 249.632812 C 720.34375 249.613281 720.171875 249.597656 720 249.597656 C 720 249.597656 719.996094 249.597656 719.996094 249.597656 C 719.820312 249.597656 719.648438 249.609375 719.476562 249.632812 C 719.433594 249.640625 719.390625 249.648438 719.347656 249.65625 C 719.292969 249.664062 719.238281 249.675781 719.183594 249.6875 C 719.160156 249.691406 719.136719 249.695312 719.113281 249.699219 C 719.066406 249.710938 719.015625 249.722656 718.964844 249.734375 C 718.910156 249.75 718.851562 249.769531 718.792969 249.789062 C 718.6875 249.820312 718.582031 249.855469 718.480469 249.898438 C 718.4375 249.914062 718.394531 249.933594 718.351562 249.949219 C 718.324219 249.960938 718.292969 249.980469 718.261719 249.996094 C 718.21875 250.015625 718.171875 250.03125 718.128906 250.054688 C 718.101562 250.066406 718.082031 250.085938 718.0625 250.097656 C 717.925781 250.171875 717.792969 250.253906 717.667969 250.34375 C 717.625 250.371094 717.585938 250.398438 717.546875 250.425781 C 717.511719 250.449219 717.472656 250.472656 717.441406 250.5 C 717.433594 250.507812 717.425781 250.515625 717.414062 250.523438 C 717.261719 250.652344 717.117188 250.792969 716.984375 250.941406 C 716.972656 250.953125 716.957031 250.960938 716.949219 250.972656 L 622.765625 357.453125 L 622.761719 357.457031 L 622.714844 357.507812 C 622.613281 357.632812 622.527344 357.765625 622.441406 357.898438 Z M 730.460938 396.855469 L 709.558594 396.855469 C 705.007812 393.933594 684.0625 379.152344 684.121094 354.984375 C 706.492188 361.722656 729.730469 361.554688 755.898438 354.476562 C 756.328125 379.15625 735.15625 393.898438 730.460938 396.855469 Z M 684.929688 346.710938 C 688.996094 325.953125 711.183594 280.316406 720.003906 262.6875 C 728.761719 280.199219 750.707031 325.332031 754.988281 346.28125 C 729.25 353.429688 706.621094 353.570312 684.929688 346.710938 Z M 763.296875 343.773438 C 763.132812 343.828125 762.972656 343.875 762.808594 343.929688 C 759.269531 327.707031 747 299.988281 737.109375 279.160156 L 795.433594 345.097656 C 786.1875 341.777344 774.859375 339.996094 763.296875 343.773438 Z M 677.191406 343.953125 C 677.113281 343.921875 677.03125 343.890625 676.953125 343.859375 C 672.988281 342.277344 668.808594 341.621094 664.601562 341.621094 C 657.40625 341.621094 650.144531 343.542969 643.75 346.019531 L 702.894531 279.160156 C 693 300 680.722656 327.734375 677.191406 343.953125 Z M 631.933594 361.039062 C 640.042969 356.042969 659.550781 345.679688 673.929688 351.425781 C 674.632812 351.703125 675.332031 351.972656 676.03125 352.238281 C 674.746094 373.453125 686.863281 388.515625 696.183594 396.859375 L 663.597656 396.859375 Z M 776.40625 396.855469 L 743.820312 396.855469 C 753.160156 388.496094 765.308594 373.390625 763.964844 352.105469 C 764.585938 351.90625 765.203125 351.714844 765.828125 351.511719 C 783.253906 345.820312 801.003906 355.914062 808.238281 360.84375 Z M 776.40625 396.855469 " fill-opacity="1" fill-rule="nonzero"/></g><g transform="matrix(1, 0, 0, 1, 89, 479)"><g clip-path="url(#662c77bbdb)"><g fill="#0d1b4c" fill-opacity="1"><g transform="translate(2.801377, 126.029463)"><g><path d="M 3.65625 -121.828125 L 17.78125 -121.828125 C 21.351562 -121.828125 25.289062 -122.03125 29.59375 -122.4375 C 33.90625 -122.84375 38.210938 -123.25 42.515625 -123.65625 C 46.816406 -124.0625 50.753906 -124.265625 54.328125 -124.265625 C 58.640625 -124.265625 62.765625 -123.898438 66.703125 -123.171875 C 70.640625 -122.441406 74.148438 -121.203125 77.234375 -119.453125 C 80.328125 -117.703125 82.765625 -115.40625 84.546875 -112.5625 C 86.335938 -109.726562 87.234375 -106.15625 87.234375 -101.84375 C 87.234375 -97.300781 86.238281 -93.40625 84.25 -90.15625 C 82.257812 -86.90625 79.617188 -84.117188 76.328125 -81.796875 C 73.035156 -79.484375 69.441406 -77.515625 65.546875 -75.890625 C 61.648438 -74.273438 57.75 -72.816406 53.84375 -71.515625 C 49.945312 -70.210938 46.351562 -68.972656 43.0625 -67.796875 C 39.769531 -66.617188 37.128906 -65.335938 35.140625 -63.953125 C 33.148438 -62.578125 32.15625 -60.914062 32.15625 -58.96875 C 32.15625 -57.582031 32.5625 -56.707031 33.375 -56.34375 C 34.1875 -55.976562 34.960938 -55.796875 35.703125 -55.796875 C 37.398438 -55.796875 39.488281 -56.425781 41.96875 -57.6875 C 44.445312 -58.945312 47.269531 -60.1875 50.4375 -61.40625 C 53.601562 -62.625 57.132812 -63.234375 61.03125 -63.234375 C 67.289062 -63.234375 72.976562 -61.972656 78.09375 -59.453125 C 83.207031 -56.929688 87.285156 -53.394531 90.328125 -48.84375 C 93.378906 -44.300781 94.90625 -38.941406 94.90625 -32.765625 C 94.90625 -25.785156 93.335938 -19.632812 90.203125 -14.3125 C 87.078125 -8.988281 82.507812 -4.863281 76.5 -1.9375 C 70.5 0.976562 63.148438 2.4375 54.453125 2.4375 C 49.742188 2.4375 45.5 2.234375 41.71875 1.828125 C 37.945312 1.421875 34.210938 1.015625 30.515625 0.609375 C 26.816406 0.203125 22.738281 0 18.28125 0 L 3.65625 0 L 3.65625 -1.21875 C 7.144531 -1.21875 9.679688 -2.269531 11.265625 -4.375 C 12.847656 -6.488281 13.84375 -9.941406 14.25 -14.734375 C 14.65625 -19.523438 14.859375 -25.90625 14.859375 -33.875 L 14.859375 -87.953125 C 14.859375 -95.992188 14.65625 -102.390625 14.25 -107.140625 C 13.84375 -111.898438 12.847656 -115.332031 11.265625 -117.4375 C 9.679688 -119.550781 7.144531 -120.609375 3.65625 -120.609375 Z M 25.21875 -119.140625 L 25.21875 -3.171875 C 28.957031 -1.867188 32.488281 -0.890625 35.8125 -0.234375 C 39.144531 0.410156 43.046875 0.734375 47.515625 0.734375 C 55.066406 0.734375 61.601562 -0.582031 67.125 -3.21875 C 72.644531 -5.863281 76.90625 -9.625 79.90625 -14.5 C 82.914062 -19.375 84.421875 -25.179688 84.421875 -31.921875 C 84.421875 -35.578125 83.910156 -39.171875 82.890625 -42.703125 C 81.878906 -46.234375 80.378906 -49.457031 78.390625 -52.375 C 76.398438 -55.300781 73.941406 -57.617188 71.015625 -59.328125 C 68.097656 -61.035156 64.726562 -61.890625 60.90625 -61.890625 C 57.5 -61.890625 54.289062 -61.28125 51.28125 -60.0625 C 48.28125 -58.84375 45.457031 -57.625 42.8125 -56.40625 C 40.175781 -55.1875 37.640625 -54.578125 35.203125 -54.578125 C 34.148438 -54.578125 33.175781 -54.898438 32.28125 -55.546875 C 31.382812 -56.203125 30.9375 -57.257812 30.9375 -58.71875 C 30.9375 -61.394531 32.03125 -63.75 34.21875 -65.78125 C 36.414062 -67.8125 39.257812 -69.71875 42.75 -71.5 C 46.25 -73.289062 49.945312 -75.097656 53.84375 -76.921875 C 57.75 -78.753906 61.445312 -80.804688 64.9375 -83.078125 C 68.425781 -85.359375 71.265625 -88 73.453125 -91 C 75.648438 -94.007812 76.75 -97.546875 76.75 -101.609375 C 76.75 -106.640625 75.328125 -110.695312 72.484375 -113.78125 C 69.640625 -116.875 65.960938 -119.109375 61.453125 -120.484375 C 56.953125 -121.867188 52.222656 -122.5625 47.265625 -122.5625 C 43.285156 -122.5625 39.507812 -122.273438 35.9375 -121.703125 C 32.363281 -121.140625 28.789062 -120.285156 25.21875 -119.140625 Z M 25.21875 -119.140625 "/></g></g></g><g fill="#0d1b4c" fill-opacity="1"><g transform="translate(122.652339, 126.029463)"><g><path d="M 3.65625 0 L 3.65625 -1.21875 C 7.144531 -1.21875 9.679688 -2.269531 11.265625 -4.375 C 12.847656 -6.488281 13.84375 -9.941406 14.25 -14.734375 C 14.65625 -19.523438 14.859375 -25.90625 14.859375 -33.875 L 14.859375 -87.953125 C 14.859375 -95.992188 14.65625 -102.390625 14.25 -107.140625 C 13.84375 -111.898438 12.847656 -115.332031 11.265625 -117.4375 C 9.679688 -119.550781 7.144531 -120.609375 3.65625 -120.609375 L 3.65625 -121.828125 L 25.34375 -121.828125 L 25.34375 -33.875 C 25.34375 -25.90625 25.546875 -19.523438 25.953125 -14.734375 C 26.359375 -9.941406 27.351562 -6.488281 28.9375 -4.375 C 30.519531 -2.269531 33.054688 -1.21875 36.546875 -1.21875 L 36.546875 0 Z M 3.65625 0 "/></g></g></g><g fill="#0d1b4c" fill-opacity="1"><g transform="translate(180.512018, 126.029463)"><g><path d="M 2.4375 -85.03125 L 2.4375 -86.25 L 24.125 -86.25 C 24.125 -85.757812 24.125 -84.316406 24.125 -81.921875 C 24.125 -79.523438 24.125 -76.5625 24.125 -73.03125 C 24.125 -69.5 24.144531 -65.679688 24.1875 -61.578125 C 24.226562 -57.484375 24.25 -53.40625 24.25 -49.34375 C 24.25 -45.28125 24.25 -41.582031 24.25 -38.25 C 24.25 -34.925781 24.25 -32.269531 24.25 -30.28125 C 24.25 -28.289062 24.25 -27.296875 24.25 -27.296875 C 24.25 -21.847656 24.914062 -17.378906 26.25 -13.890625 C 27.59375 -10.398438 29.335938 -7.660156 31.484375 -5.671875 C 33.640625 -3.679688 35.957031 -2.21875 38.4375 -1.28125 C 40.914062 -0.34375 43.332031 0.222656 45.6875 0.421875 C 48.039062 0.628906 50.03125 0.734375 51.65625 0.734375 C 54.738281 0.734375 57.925781 0.410156 61.21875 -0.234375 C 64.507812 -0.890625 67.613281 -1.742188 70.53125 -2.796875 L 70.53125 -52.390625 C 70.53125 -60.429688 70.328125 -66.828125 69.921875 -71.578125 C 69.515625 -76.328125 68.519531 -79.753906 66.9375 -81.859375 C 65.351562 -83.972656 62.816406 -85.03125 59.328125 -85.03125 L 59.328125 -86.25 L 81.015625 -86.25 L 81.015625 -33.875 C 81.015625 -25.90625 81.21875 -19.523438 81.625 -14.734375 C 82.03125 -9.941406 83.023438 -6.488281 84.609375 -4.375 C 86.191406 -2.269531 88.726562 -1.21875 92.21875 -1.21875 L 92.21875 0 L 78.328125 0 C 75.003906 0 71.289062 0.203125 67.1875 0.609375 C 63.082031 1.015625 59.140625 1.421875 55.359375 1.828125 C 51.585938 2.234375 48.523438 2.4375 46.171875 2.4375 C 43.984375 2.4375 41.488281 2.289062 38.6875 2 C 35.882812 1.71875 33.019531 1.109375 30.09375 0.171875 C 27.164062 -0.753906 24.460938 -2.191406 21.984375 -4.140625 C 19.515625 -6.085938 17.503906 -8.726562 15.953125 -12.0625 C 14.410156 -15.394531 13.640625 -19.617188 13.640625 -24.734375 L 13.640625 -52.390625 C 13.640625 -60.429688 13.4375 -66.828125 13.03125 -71.578125 C 12.625 -76.328125 11.628906 -79.753906 10.046875 -81.859375 C 8.460938 -83.972656 5.925781 -85.03125 2.4375 -85.03125 Z M 2.4375 -85.03125 "/></g></g></g><g fill="#0d1b4c" fill-opacity="1"><g transform="translate(292.81198, 126.029463)"><g><path d="M 49.09375 2.4375 C 42.519531 2.4375 36.648438 1.257812 31.484375 -1.09375 C 26.328125 -3.445312 21.960938 -6.710938 18.390625 -10.890625 C 14.816406 -15.078125 12.078125 -19.929688 10.171875 -25.453125 C 8.265625 -30.984375 7.3125 -36.875 7.3125 -43.125 C 7.3125 -49.382812 8.265625 -55.273438 10.171875 -60.796875 C 12.078125 -66.316406 14.816406 -71.164062 18.390625 -75.34375 C 21.960938 -79.53125 26.328125 -82.800781 31.484375 -85.15625 C 36.648438 -87.507812 42.519531 -88.6875 49.09375 -88.6875 C 55.675781 -88.6875 61.320312 -87.832031 66.03125 -86.125 C 70.738281 -84.425781 74.59375 -82.195312 77.59375 -79.4375 C 80.601562 -76.675781 82.816406 -73.671875 84.234375 -70.421875 C 85.660156 -67.171875 86.375 -64 86.375 -60.90625 C 86.289062 -54.007812 84.335938 -48.609375 80.515625 -44.703125 C 76.703125 -40.804688 71.304688 -38.859375 64.328125 -38.859375 C 59.453125 -38.859375 55.285156 -39.40625 51.828125 -40.5 C 48.378906 -41.601562 45.332031 -42.863281 42.6875 -44.28125 C 40.050781 -45.707031 37.492188 -46.96875 35.015625 -48.0625 C 32.546875 -49.15625 29.804688 -49.703125 26.796875 -49.703125 C 25.335938 -49.703125 24.019531 -49.316406 22.84375 -48.546875 C 21.664062 -47.773438 20.992188 -47.144531 20.828125 -46.65625 L 20.34375 -46.78125 C 20.34375 -49.300781 21.414062 -51.554688 23.5625 -53.546875 C 25.71875 -55.535156 28.910156 -56.53125 33.140625 -56.53125 C 36.304688 -56.53125 39.3125 -55.71875 42.15625 -54.09375 C 45 -52.46875 47.71875 -50.578125 50.3125 -48.421875 C 52.914062 -46.273438 55.429688 -44.390625 57.859375 -42.765625 C 60.296875 -41.140625 62.734375 -40.328125 65.171875 -40.328125 C 68.179688 -40.328125 70.660156 -41.460938 72.609375 -43.734375 C 74.554688 -46.003906 75.914062 -48.90625 76.6875 -52.4375 C 77.457031 -55.976562 77.519531 -59.757812 76.875 -63.78125 C 76.226562 -67.800781 74.804688 -71.578125 72.609375 -75.109375 C 70.410156 -78.640625 67.363281 -81.539062 63.46875 -83.8125 C 59.570312 -86.09375 54.703125 -87.234375 48.859375 -87.234375 C 43.898438 -87.234375 39.632812 -86.273438 36.0625 -84.359375 C 32.488281 -82.453125 29.523438 -79.914062 27.171875 -76.75 C 24.816406 -73.582031 22.925781 -70.085938 21.5 -66.265625 C 20.082031 -62.453125 19.085938 -58.554688 18.515625 -54.578125 C 17.953125 -50.597656 17.707031 -46.90625 17.78125 -43.5 C 17.863281 -37.8125 18.71875 -32.445312 20.34375 -27.40625 C 21.96875 -22.375 24.300781 -17.925781 27.34375 -14.0625 C 30.394531 -10.207031 34.113281 -7.179688 38.5 -4.984375 C 42.882812 -2.796875 47.878906 -1.703125 53.484375 -1.703125 C 55.921875 -1.703125 58.640625 -2.066406 61.640625 -2.796875 C 64.648438 -3.535156 67.675781 -4.710938 70.71875 -6.328125 C 73.769531 -7.953125 76.570312 -10.101562 79.125 -12.78125 C 81.6875 -15.46875 83.695312 -18.757812 85.15625 -22.65625 L 86.859375 -21.921875 C 83.691406 -14.703125 78.878906 -8.835938 72.421875 -4.328125 C 65.960938 0.179688 58.1875 2.4375 49.09375 2.4375 Z M 49.09375 2.4375 "/></g></g></g><g fill="#0d1b4c" fill-opacity="1"><g transform="translate(404.624779, 126.029463)"><g/></g></g><g fill="#0d1b4c" fill-opacity="1"><g transform="translate(464.920279, 126.029463)"><g><path d="M 3.65625 0 L 3.65625 -1.21875 C 7.144531 -1.21875 9.679688 -2.269531 11.265625 -4.375 C 12.847656 -6.488281 13.84375 -9.941406 14.25 -14.734375 C 14.65625 -19.523438 14.859375 -25.90625 14.859375 -33.875 L 14.859375 -87.953125 C 14.859375 -95.992188 14.65625 -102.390625 14.25 -107.140625 C 13.84375 -111.898438 12.847656 -115.332031 11.265625 -117.4375 C 9.679688 -119.550781 7.144531 -120.609375 3.65625 -120.609375 L 3.65625 -121.828125 L 13.40625 -121.828125 C 19.820312 -121.828125 25.75 -122.234375 31.1875 -123.046875 C 36.625 -123.859375 42.023438 -124.265625 47.390625 -124.265625 C 56.804688 -124.265625 64.96875 -122.554688 71.875 -119.140625 C 78.78125 -115.734375 84.523438 -111.066406 89.109375 -105.140625 C 93.703125 -99.210938 97.113281 -92.453125 99.34375 -84.859375 C 101.582031 -77.265625 102.703125 -69.28125 102.703125 -60.90625 C 102.703125 -52.539062 101.582031 -44.5625 99.34375 -36.96875 C 97.113281 -29.375 93.703125 -22.613281 89.109375 -16.6875 C 84.523438 -10.757812 78.78125 -6.085938 71.875 -2.671875 C 64.96875 0.734375 56.804688 2.4375 47.390625 2.4375 C 42.023438 2.4375 36.625 2.03125 31.1875 1.21875 C 25.75 0.40625 19.820312 0 13.40625 0 Z M 25.21875 -119.140625 L 25.21875 -2.6875 C 28.789062 -1.625 32.363281 -0.785156 35.9375 -0.171875 C 39.507812 0.429688 43.285156 0.734375 47.265625 0.734375 C 54.816406 0.734375 61.394531 -0.890625 67 -4.140625 C 72.601562 -7.390625 77.273438 -11.875 81.015625 -17.59375 C 84.753906 -23.320312 87.554688 -29.898438 89.421875 -37.328125 C 91.285156 -44.765625 92.21875 -52.625 92.21875 -60.90625 C 92.21875 -69.195312 91.285156 -77.054688 89.421875 -84.484375 C 87.554688 -91.921875 84.753906 -98.5 81.015625 -104.21875 C 77.273438 -109.945312 72.601562 -114.4375 67 -117.6875 C 61.394531 -120.9375 54.816406 -122.5625 47.265625 -122.5625 C 43.285156 -122.5625 39.507812 -122.273438 35.9375 -121.703125 C 32.363281 -121.140625 28.789062 -120.285156 25.21875 -119.140625 Z M 25.21875 -119.140625 "/></g></g></g><g fill="#0d1b4c" fill-opacity="1"><g transform="translate(592.565825, 126.029463)"><g><path d="M 36.546875 0 L 3.65625 0 L 3.65625 -1.21875 C 7.144531 -1.21875 9.679688 -2.269531 11.265625 -4.375 C 12.847656 -6.488281 13.84375 -9.941406 14.25 -14.734375 C 14.65625 -19.523438 14.859375 -25.90625 14.859375 -33.875 L 14.859375 -52.390625 C 14.859375 -60.429688 14.65625 -66.828125 14.25 -71.578125 C 13.84375 -76.328125 12.847656 -79.753906 11.265625 -81.859375 C 9.679688 -83.972656 7.144531 -85.03125 3.65625 -85.03125 L 3.65625 -86.25 L 25.34375 -86.25 L 25.34375 -33.875 C 25.34375 -25.90625 25.546875 -19.523438 25.953125 -14.734375 C 26.359375 -9.941406 27.351562 -6.488281 28.9375 -4.375 C 30.519531 -2.269531 33.054688 -1.21875 36.546875 -1.21875 Z M 11.328125 -102.21875 C 11.328125 -104.488281 12.117188 -106.414062 13.703125 -108 C 15.285156 -109.582031 17.21875 -110.375 19.5 -110.375 C 21.769531 -110.375 23.695312 -109.582031 25.28125 -108 C 26.863281 -106.414062 27.65625 -104.488281 27.65625 -102.21875 C 27.65625 -99.9375 26.863281 -98.003906 25.28125 -96.421875 C 23.695312 -94.835938 21.769531 -94.046875 19.5 -94.046875 C 17.21875 -94.046875 15.285156 -94.835938 13.703125 -96.421875 C 12.117188 -98.003906 11.328125 -99.9375 11.328125 -102.21875 Z M 11.328125 -102.21875 "/></g></g></g><g fill="#0d1b4c" fill-opacity="1"><g transform="translate(649.207592, 126.029463)"><g><path d="M 7.3125 -24.609375 C 7.3125 -30.703125 8.425781 -35.757812 10.65625 -39.78125 C 12.894531 -43.800781 15.835938 -47.066406 19.484375 -49.578125 C 23.140625 -52.097656 27.160156 -54.109375 31.546875 -55.609375 C 35.929688 -57.117188 40.316406 -58.378906 44.703125 -59.390625 C 49.097656 -60.398438 53.117188 -61.453125 56.765625 -62.546875 C 60.421875 -63.648438 63.363281 -65.050781 65.59375 -66.75 C 67.832031 -68.457031 68.953125 -70.734375 68.953125 -73.578125 C 68.953125 -76.910156 67.851562 -79.59375 65.65625 -81.625 C 63.46875 -83.65625 60.75 -85.132812 57.5 -86.0625 C 54.25 -87 50.960938 -87.46875 47.640625 -87.46875 C 43.816406 -87.46875 40.160156 -87 36.671875 -86.0625 C 33.179688 -85.132812 30.335938 -83.632812 28.140625 -81.5625 C 25.953125 -79.488281 24.859375 -76.75 24.859375 -73.34375 C 24.859375 -71.0625 25.523438 -69.414062 26.859375 -68.40625 C 28.203125 -67.394531 29.15625 -67.171875 29.71875 -67.734375 C 30.375 -65.953125 29.910156 -64.328125 28.328125 -62.859375 C 26.742188 -61.398438 24.9375 -60.671875 22.90625 -60.671875 C 20.300781 -60.671875 18.1875 -61.644531 16.5625 -63.59375 C 14.9375 -65.539062 14.125 -67.816406 14.125 -70.421875 C 14.125 -74.484375 15.585938 -77.851562 18.515625 -80.53125 C 21.441406 -83.207031 25.441406 -85.234375 30.515625 -86.609375 C 35.585938 -87.992188 41.296875 -88.6875 47.640625 -88.6875 C 51.046875 -88.6875 54.597656 -88.34375 58.296875 -87.65625 C 61.992188 -86.96875 65.425781 -85.953125 68.59375 -84.609375 C 71.757812 -83.265625 74.335938 -81.660156 76.328125 -79.796875 C 78.316406 -77.929688 79.3125 -75.78125 79.3125 -73.34375 C 79.3125 -70.90625 78.457031 -68.953125 76.75 -67.484375 C 75.039062 -66.023438 72.722656 -64.867188 69.796875 -64.015625 C 66.878906 -63.160156 63.59375 -62.367188 59.9375 -61.640625 C 56.28125 -60.910156 52.523438 -60.078125 48.671875 -59.140625 C 44.816406 -58.210938 41.0625 -56.9375 37.40625 -55.3125 C 33.75 -53.6875 30.457031 -51.570312 27.53125 -48.96875 C 24.601562 -46.375 22.285156 -43.023438 20.578125 -38.921875 C 18.878906 -34.816406 18.03125 -29.800781 18.03125 -23.875 C 18.03125 -19.65625 18.863281 -15.859375 20.53125 -12.484375 C 22.195312 -9.117188 24.53125 -6.457031 27.53125 -4.5 C 30.539062 -2.550781 34.035156 -1.578125 38.015625 -1.578125 C 41.335938 -1.578125 44.722656 -2.46875 48.171875 -4.25 C 51.628906 -6.039062 54.859375 -8.882812 57.859375 -12.78125 C 60.867188 -16.6875 63.285156 -21.742188 65.109375 -27.953125 C 66.941406 -34.171875 67.859375 -41.707031 67.859375 -50.5625 C 67.859375 -51.9375 67.734375 -53.210938 67.484375 -54.390625 C 67.242188 -55.566406 66.675781 -56.28125 65.78125 -56.53125 C 65.78125 -56.9375 66.082031 -57.320312 66.6875 -57.6875 C 67.300781 -58.050781 68.097656 -58.234375 69.078125 -58.234375 C 72.078125 -58.234375 74.265625 -57.316406 75.640625 -55.484375 C 77.023438 -53.660156 77.941406 -51.304688 78.390625 -48.421875 C 78.835938 -45.546875 79.0625 -42.484375 79.0625 -39.234375 C 79.0625 -36.546875 79.0625 -34.285156 79.0625 -32.453125 C 79.0625 -30.628906 79.082031 -28.882812 79.125 -27.21875 C 79.164062 -25.5625 79.1875 -23.695312 79.1875 -21.625 C 79.1875 -19.550781 79.1875 -16.890625 79.1875 -13.640625 C 79.1875 -10.234375 79.734375 -7.632812 80.828125 -5.84375 C 81.929688 -4.0625 83.210938 -2.84375 84.671875 -2.1875 C 86.128906 -1.539062 87.390625 -1.21875 88.453125 -1.21875 L 88.453125 0 L 79.796875 0 C 76.546875 0 73.800781 -1.378906 71.5625 -4.140625 C 69.332031 -6.898438 68.21875 -10.554688 68.21875 -15.109375 L 68.21875 -35.9375 C 67.164062 -30.738281 65.785156 -25.820312 64.078125 -21.1875 C 62.367188 -16.5625 60.234375 -12.460938 57.671875 -8.890625 C 55.117188 -5.316406 51.953125 -2.535156 48.171875 -0.546875 C 44.398438 1.441406 39.835938 2.4375 34.484375 2.4375 C 29.285156 2.4375 24.632812 1.28125 20.53125 -1.03125 C 16.425781 -3.34375 13.195312 -6.550781 10.84375 -10.65625 C 8.488281 -14.757812 7.3125 -19.410156 7.3125 -24.609375 Z M 7.3125 -24.609375 "/></g></g></g><g fill="#0d1b4c" fill-opacity="1"><g transform="translate(757.73203, 126.029463)"><g><path d="M 36.546875 0 L 3.65625 0 L 3.65625 -1.21875 C 7.144531 -1.21875 9.679688 -2.269531 11.265625 -4.375 C 12.847656 -6.488281 13.84375 -9.941406 14.25 -14.734375 C 14.65625 -19.523438 14.859375 -25.90625 14.859375 -33.875 L 14.859375 -52.390625 C 14.859375 -60.429688 14.65625 -66.828125 14.25 -71.578125 C 13.84375 -76.328125 12.847656 -79.753906 11.265625 -81.859375 C 9.679688 -83.972656 7.144531 -85.03125 3.65625 -85.03125 L 3.65625 -86.25 L 17.546875 -86.25 C 20.867188 -86.25 24.582031 -86.453125 28.6875 -86.859375 C 32.789062 -87.265625 36.75 -87.671875 40.5625 -88.078125 C 44.382812 -88.484375 47.429688 -88.6875 49.703125 -88.6875 C 52.628906 -88.6875 56.140625 -88.421875 60.234375 -87.890625 C 64.335938 -87.367188 68.140625 -85.972656 71.640625 -83.703125 C 72.929688 -83.703125 75.097656 -84.125 78.140625 -84.96875 C 81.191406 -85.820312 85.09375 -86.65625 89.84375 -87.46875 C 94.59375 -88.28125 100.140625 -88.6875 106.484375 -88.6875 C 108.671875 -88.6875 111.164062 -88.546875 113.96875 -88.265625 C 116.769531 -87.984375 119.628906 -87.375 122.546875 -86.4375 C 125.472656 -85.5 128.175781 -84.054688 130.65625 -82.109375 C 133.132812 -80.160156 135.144531 -77.519531 136.6875 -74.1875 C 138.226562 -70.863281 139 -66.640625 139 -61.515625 L 139 -33.875 C 139 -25.90625 139.203125 -19.523438 139.609375 -14.734375 C 140.015625 -9.941406 141.007812 -6.488281 142.59375 -4.375 C 144.175781 -2.269531 146.71875 -1.21875 150.21875 -1.21875 L 150.21875 0 L 117.328125 0 L 117.328125 -1.21875 C 120.816406 -1.21875 123.351562 -2.269531 124.9375 -4.375 C 126.519531 -6.488281 127.515625 -9.941406 127.921875 -14.734375 C 128.328125 -19.523438 128.53125 -25.90625 128.53125 -33.875 C 128.53125 -34.601562 128.53125 -35.921875 128.53125 -37.828125 C 128.53125 -39.734375 128.53125 -41.882812 128.53125 -44.28125 C 128.53125 -46.675781 128.507812 -48.988281 128.46875 -51.21875 C 128.425781 -53.457031 128.40625 -55.304688 128.40625 -56.765625 C 128.40625 -58.234375 128.40625 -58.96875 128.40625 -58.96875 C 128.40625 -64.40625 127.734375 -68.890625 126.390625 -72.421875 C 125.054688 -75.953125 123.3125 -78.710938 121.15625 -80.703125 C 119 -82.703125 116.679688 -84.144531 114.203125 -85.03125 C 111.734375 -85.925781 109.320312 -86.492188 106.96875 -86.734375 C 104.613281 -86.984375 102.625 -87.109375 101 -87.109375 C 96.53125 -87.109375 92.125 -86.597656 87.78125 -85.578125 C 83.4375 -84.566406 79.351562 -82.925781 75.53125 -80.65625 C 77.5625 -78.625 79.1875 -76.0625 80.40625 -72.96875 C 81.625 -69.882812 82.234375 -66.066406 82.234375 -61.515625 L 82.234375 -33.875 C 82.234375 -25.90625 82.4375 -19.523438 82.84375 -14.734375 C 83.25 -9.941406 84.242188 -6.488281 85.828125 -4.375 C 87.410156 -2.269531 89.945312 -1.21875 93.4375 -1.21875 L 93.4375 0 L 60.546875 0 L 60.546875 -1.21875 C 64.035156 -1.21875 66.570312 -2.269531 68.15625 -4.375 C 69.738281 -6.488281 70.734375 -9.941406 71.140625 -14.734375 C 71.546875 -19.523438 71.75 -25.90625 71.75 -33.875 C 71.75 -34.601562 71.75 -35.921875 71.75 -37.828125 C 71.75 -39.734375 71.75 -41.882812 71.75 -44.28125 C 71.75 -46.675781 71.726562 -48.988281 71.6875 -51.21875 C 71.65625 -53.457031 71.640625 -55.304688 71.640625 -56.765625 C 71.640625 -58.234375 71.640625 -58.96875 71.640625 -58.96875 C 71.640625 -64.40625 70.96875 -68.867188 69.625 -72.359375 C 68.28125 -75.859375 66.53125 -78.601562 64.375 -80.59375 C 62.226562 -82.582031 59.914062 -84.039062 57.4375 -84.96875 C 54.957031 -85.90625 52.539062 -86.472656 50.1875 -86.671875 C 47.832031 -86.878906 45.84375 -86.984375 44.21875 -86.984375 C 41.132812 -86.984375 37.945312 -86.65625 34.65625 -86 C 31.363281 -85.351562 28.257812 -84.503906 25.34375 -83.453125 L 25.34375 -33.875 C 25.34375 -25.90625 25.546875 -19.523438 25.953125 -14.734375 C 26.359375 -9.941406 27.351562 -6.488281 28.9375 -4.375 C 30.519531 -2.269531 33.054688 -1.21875 36.546875 -1.21875 Z M 36.546875 0 "/></g></g></g><g fill="#0d1b4c" fill-opacity="1"><g transform="translate(928.00417, 126.029463)"><g><path d="M 49.09375 2.4375 C 42.519531 2.4375 36.648438 1.257812 31.484375 -1.09375 C 26.328125 -3.445312 21.960938 -6.710938 18.390625 -10.890625 C 14.816406 -15.078125 12.078125 -19.929688 10.171875 -25.453125 C 8.265625 -30.984375 7.3125 -36.875 7.3125 -43.125 C 7.3125 -49.382812 8.265625 -55.273438 10.171875 -60.796875 C 12.078125 -66.316406 14.816406 -71.164062 18.390625 -75.34375 C 21.960938 -79.53125 26.328125 -82.800781 31.484375 -85.15625 C 36.648438 -87.507812 42.519531 -88.6875 49.09375 -88.6875 C 55.675781 -88.6875 61.546875 -87.507812 66.703125 -85.15625 C 71.859375 -82.800781 76.265625 -79.53125 79.921875 -75.34375 C 83.578125 -71.164062 86.359375 -66.316406 88.265625 -60.796875 C 90.171875 -55.273438 91.125 -49.382812 91.125 -43.125 C 91.125 -36.875 90.171875 -30.984375 88.265625 -25.453125 C 86.359375 -19.929688 83.578125 -15.078125 79.921875 -10.890625 C 76.265625 -6.710938 71.859375 -3.445312 66.703125 -1.09375 C 61.546875 1.257812 55.675781 2.4375 49.09375 2.4375 Z M 17.671875 -43.125 C 17.671875 -34.1875 18.96875 -26.410156 21.5625 -19.796875 C 24.164062 -13.179688 27.84375 -8.066406 32.59375 -4.453125 C 37.34375 -0.835938 42.84375 0.96875 49.09375 0.96875 C 55.425781 0.96875 60.96875 -0.835938 65.71875 -4.453125 C 70.476562 -8.066406 74.175781 -13.179688 76.8125 -19.796875 C 79.445312 -26.410156 80.765625 -34.1875 80.765625 -43.125 C 80.765625 -52.0625 79.445312 -59.835938 76.8125 -66.453125 C 74.175781 -73.078125 70.476562 -78.195312 65.71875 -81.8125 C 60.96875 -85.425781 55.425781 -87.234375 49.09375 -87.234375 C 42.84375 -87.234375 37.34375 -85.425781 32.59375 -81.8125 C 27.84375 -78.195312 24.164062 -73.078125 21.5625 -66.453125 C 18.96875 -59.835938 17.671875 -52.0625 17.671875 -43.125 Z M 17.671875 -43.125 "/></g></g></g><g fill="#0d1b4c" fill-opacity="1"><g transform="translate(1044.079659, 126.029463)"><g><path d="M 3.65625 -1.21875 C 7.144531 -1.21875 9.679688 -2.269531 11.265625 -4.375 C 12.847656 -6.488281 13.84375 -9.941406 14.25 -14.734375 C 14.65625 -19.523438 14.859375 -25.90625 14.859375 -33.875 L 14.859375 -52.390625 C 14.859375 -60.429688 14.65625 -66.828125 14.25 -71.578125 C 13.84375 -76.328125 12.847656 -79.753906 11.265625 -81.859375 C 9.679688 -83.972656 7.144531 -85.03125 3.65625 -85.03125 L 3.65625 -86.25 L 17.546875 -86.25 C 20.867188 -86.25 24.582031 -86.453125 28.6875 -86.859375 C 32.789062 -87.265625 36.75 -87.671875 40.5625 -88.078125 C 44.382812 -88.484375 47.429688 -88.6875 49.703125 -88.6875 C 51.898438 -88.6875 54.398438 -88.546875 57.203125 -88.265625 C 60.003906 -87.984375 62.863281 -87.375 65.78125 -86.4375 C 68.707031 -85.5 71.410156 -84.054688 73.890625 -82.109375 C 76.367188 -80.160156 78.378906 -77.519531 79.921875 -74.1875 C 81.460938 -70.863281 82.234375 -66.640625 82.234375 -61.515625 L 82.234375 -33.875 C 82.234375 -25.90625 82.4375 -19.523438 82.84375 -14.734375 C 83.25 -9.941406 84.242188 -6.488281 85.828125 -4.375 C 87.410156 -2.269531 89.945312 -1.21875 93.4375 -1.21875 L 93.4375 0 L 60.546875 0 L 60.546875 -1.21875 C 64.035156 -1.21875 66.570312 -2.269531 68.15625 -4.375 C 69.738281 -6.488281 70.734375 -9.941406 71.140625 -14.734375 C 71.546875 -19.523438 71.75 -25.90625 71.75 -33.875 C 71.75 -34.601562 71.75 -35.921875 71.75 -37.828125 C 71.75 -39.734375 71.75 -41.882812 71.75 -44.28125 C 71.75 -46.675781 71.726562 -48.988281 71.6875 -51.21875 C 71.65625 -53.457031 71.640625 -55.304688 71.640625 -56.765625 C 71.640625 -58.234375 71.640625 -58.96875 71.640625 -58.96875 C 71.640625 -64.40625 70.96875 -68.867188 69.625 -72.359375 C 68.28125 -75.859375 66.53125 -78.601562 64.375 -80.59375 C 62.226562 -82.582031 59.914062 -84.039062 57.4375 -84.96875 C 54.957031 -85.90625 52.539062 -86.472656 50.1875 -86.671875 C 47.832031 -86.878906 45.84375 -86.984375 44.21875 -86.984375 C 41.132812 -86.984375 37.945312 -86.65625 34.65625 -86 C 31.363281 -85.351562 28.257812 -84.503906 25.34375 -83.453125 L 25.34375 -33.875 C 25.34375 -25.90625 25.546875 -19.523438 25.953125 -14.734375 C 26.359375 -9.941406 27.351562 -6.488281 28.9375 -4.375 C 30.519531 -2.269531 33.054688 -1.21875 36.546875 -1.21875 L 36.546875 0 L 3.65625 0 Z M 3.65625 -1.21875 "/></g></g></g><g fill="#0d1b4c" fill-opacity="1"><g transform="translate(1157.597532, 126.029463)"><g><path d="M 49.09375 2.4375 C 42.519531 2.4375 36.648438 1.257812 31.484375 -1.09375 C 26.328125 -3.445312 21.960938 -6.710938 18.390625 -10.890625 C 14.816406 -15.078125 12.078125 -19.929688 10.171875 -25.453125 C 8.265625 -30.984375 7.3125 -36.875 7.3125 -43.125 C 7.3125 -49.382812 8.265625 -55.273438 10.171875 -60.796875 C 12.078125 -66.316406 14.816406 -71.164062 18.390625 -75.34375 C 21.960938 -79.53125 26.328125 -82.800781 31.484375 -85.15625 C 36.648438 -87.507812 42.519531 -88.6875 49.09375 -88.6875 C 55.507812 -88.6875 60.890625 -88.078125 65.234375 -86.859375 C 69.578125 -85.640625 73.660156 -83.8125 77.484375 -81.375 L 77.484375 -87.953125 C 77.484375 -95.992188 77.28125 -102.390625 76.875 -107.140625 C 76.46875 -111.898438 75.472656 -115.332031 73.890625 -117.4375 C 72.304688 -119.550781 69.769531 -120.609375 66.28125 -120.609375 L 66.28125 -121.828125 L 87.953125 -121.828125 L 87.953125 -33.875 C 87.953125 -25.90625 88.15625 -19.523438 88.5625 -14.734375 C 88.96875 -9.941406 89.960938 -6.488281 91.546875 -4.375 C 93.128906 -2.269531 95.671875 -1.21875 99.171875 -1.21875 L 99.171875 0 L 77.484375 0 L 77.484375 -9.625 C 74.554688 -6.132812 70.570312 -3.25 65.53125 -0.96875 C 60.5 1.300781 55.019531 2.4375 49.09375 2.4375 Z M 49.09375 -87.234375 C 42.84375 -87.234375 37.34375 -85.425781 32.59375 -81.8125 C 27.84375 -78.195312 24.164062 -73.078125 21.5625 -66.453125 C 18.96875 -59.835938 17.671875 -52.0625 17.671875 -43.125 C 17.671875 -34.1875 18.96875 -26.410156 21.5625 -19.796875 C 24.164062 -13.179688 27.84375 -8.066406 32.59375 -4.453125 C 37.34375 -0.835938 42.84375 0.96875 49.09375 0.96875 C 52.425781 0.96875 55.753906 0.398438 59.078125 -0.734375 C 62.410156 -1.867188 65.457031 -3.472656 68.21875 -5.546875 C 70.976562 -7.617188 73.210938 -10.035156 74.921875 -12.796875 C 76.628906 -15.554688 77.484375 -18.5625 77.484375 -21.8125 L 77.484375 -71.75 C 76.265625 -73.625 74.457031 -75.78125 72.0625 -78.21875 C 69.664062 -80.65625 66.597656 -82.765625 62.859375 -84.546875 C 59.128906 -86.335938 54.539062 -87.234375 49.09375 -87.234375 Z M 49.09375 -87.234375 "/></g></g></g></g></g><g transform="matrix(1, 0, 0, 1, 300, 649)"><g clip-path="url(#0c87ad4e5b)"><g fill="#0d1b4c" fill-opacity="1"><g transform="translate(2.213305, 51.834094)"><g><path d="M 7.34375 -4 L 29.171875 -4 L 29.171875 0 L 3.328125 0 L 3.328125 -38.90625 L 28.84375 -38.90625 L 28.84375 -34.90625 L 7.34375 -34.90625 L 7.34375 -21.453125 L 27.125 -21.453125 L 27.125 -17.453125 L 7.34375 -17.453125 Z M 7.34375 -4 "/></g></g></g><g fill="#0d1b4c" fill-opacity="1"><g transform="translate(51.840142, 51.834094)"><g><path d="M 17.171875 -21.5625 C 18.953125 -21.269531 20.691406 -20.898438 22.390625 -20.453125 C 24.097656 -20.003906 25.632812 -19.398438 27 -18.640625 C 28.375 -17.878906 29.457031 -16.867188 30.25 -15.609375 C 31.050781 -14.359375 31.453125 -12.769531 31.453125 -10.84375 C 31.453125 -8.351562 30.765625 -6.265625 29.390625 -4.578125 C 28.023438 -2.898438 26.257812 -1.644531 24.09375 -0.8125 C 21.925781 0.0195312 19.65625 0.4375 17.28125 0.4375 C 14.351562 0.4375 11.820312 0.03125 9.6875 -0.78125 C 7.5625 -1.59375 5.832031 -2.65625 4.5 -3.96875 C 3.164062 -5.289062 2.222656 -6.671875 1.671875 -8.109375 L 5.5 -9.453125 C 6.28125 -7.597656 7.6875 -6.148438 9.71875 -5.109375 C 11.757812 -4.078125 14.242188 -3.5625 17.171875 -3.5625 C 18.210938 -3.5625 19.316406 -3.6875 20.484375 -3.9375 C 21.648438 -4.195312 22.757812 -4.601562 23.8125 -5.15625 C 24.875 -5.71875 25.738281 -6.460938 26.40625 -7.390625 C 27.070312 -8.316406 27.40625 -9.46875 27.40625 -10.84375 C 27.40625 -12.25 27.023438 -13.359375 26.265625 -14.171875 C 25.503906 -14.984375 24.328125 -15.648438 22.734375 -16.171875 C 21.140625 -16.691406 19.0625 -17.175781 16.5 -17.625 C 13.988281 -18.101562 11.6875 -18.710938 9.59375 -19.453125 C 7.5 -20.191406 5.828125 -21.253906 4.578125 -22.640625 C 3.335938 -24.035156 2.703125 -25.921875 2.671875 -28.296875 C 2.671875 -30.210938 3.148438 -32.003906 4.109375 -33.671875 C 5.078125 -35.347656 6.585938 -36.703125 8.640625 -37.734375 C 10.703125 -38.773438 13.320312 -39.296875 16.5 -39.296875 C 18.800781 -39.296875 20.859375 -38.925781 22.671875 -38.1875 C 24.492188 -37.445312 26.023438 -36.453125 27.265625 -35.203125 C 28.503906 -33.960938 29.363281 -32.546875 29.84375 -30.953125 L 26.015625 -29.625 C 25.679688 -31.03125 25.03125 -32.140625 24.0625 -32.953125 C 23.101562 -33.773438 21.960938 -34.367188 20.640625 -34.734375 C 19.328125 -35.109375 17.945312 -35.296875 16.5 -35.296875 C 13.46875 -35.296875 11.070312 -34.703125 9.3125 -33.515625 C 7.550781 -32.328125 6.671875 -30.585938 6.671875 -28.296875 C 6.671875 -26.367188 7.503906 -24.921875 9.171875 -23.953125 C 10.835938 -22.992188 13.503906 -22.195312 17.171875 -21.5625 Z M 17.171875 -21.5625 "/></g></g></g><g fill="#0d1b4c" fill-opacity="1"><g transform="translate(102.634013, 51.834094)"><g><path d="M 29.296875 -38.90625 L 29.296875 -34.90625 L 17.234375 -34.90625 L 17.234375 0 L 13.234375 0 L 13.234375 -34.90625 L 1.109375 -34.90625 L 1.109375 -38.90625 Z M 29.296875 -38.90625 "/></g></g></g><g fill="#0d1b4c" fill-opacity="1"><g transform="translate(150.704804, 51.834094)"><g><path d="M 7.34375 -4 L 29.171875 -4 L 29.171875 0 L 3.328125 0 L 3.328125 -38.90625 L 28.84375 -38.90625 L 28.84375 -34.90625 L 7.34375 -34.90625 L 7.34375 -21.453125 L 27.125 -21.453125 L 27.125 -17.453125 L 7.34375 -17.453125 Z M 18.5625 -50.015625 L 22.78125 -50.015625 L 17.28125 -42.40625 L 14.234375 -42.40625 Z M 18.5625 -50.015625 "/></g></g></g><g fill="#0d1b4c" fill-opacity="1"><g transform="translate(200.331641, 51.834094)"><g><path d="M 29.296875 -38.90625 L 29.296875 -34.90625 L 17.234375 -34.90625 L 17.234375 0 L 13.234375 0 L 13.234375 -34.90625 L 1.109375 -34.90625 L 1.109375 -38.90625 Z M 29.296875 -38.90625 "/></g></g></g><g fill="#0d1b4c" fill-opacity="1"><g transform="translate(248.402432, 51.834094)"><g><path d="M 3.609375 -38.90625 L 7.609375 -38.90625 L 7.609375 0 L 3.609375 0 Z M 3.609375 -38.90625 "/></g></g></g><g fill="#0d1b4c" fill-opacity="1"><g transform="translate(277.300506, 51.834094)"><g><path d="M 21.671875 -3.5 C 24.335938 -3.5 26.753906 -4.109375 28.921875 -5.328125 C 31.097656 -6.554688 32.851562 -8.1875 34.1875 -10.21875 L 37.734375 -8.453125 C 36.066406 -5.785156 33.832031 -3.632812 31.03125 -2 C 28.238281 -0.375 25.117188 0.4375 21.671875 0.4375 C 18.929688 0.4375 16.394531 -0.078125 14.0625 -1.109375 C 11.726562 -2.148438 9.695312 -3.578125 7.96875 -5.390625 C 6.25 -7.203125 4.90625 -9.300781 3.9375 -11.6875 C 2.976562 -14.082031 2.5 -16.648438 2.5 -19.390625 C 2.5 -22.140625 2.976562 -24.707031 3.9375 -27.09375 C 4.90625 -29.476562 6.25 -31.578125 7.96875 -33.390625 C 9.695312 -35.210938 11.726562 -36.640625 14.0625 -37.671875 C 16.394531 -38.710938 18.929688 -39.234375 21.671875 -39.234375 C 25.117188 -39.234375 28.238281 -38.425781 31.03125 -36.8125 C 33.832031 -35.207031 36.066406 -33.050781 37.734375 -30.34375 L 34.1875 -28.625 C 32.851562 -30.625 31.097656 -32.234375 28.921875 -33.453125 C 26.753906 -34.679688 24.335938 -35.296875 21.671875 -35.296875 C 18.742188 -35.296875 16.148438 -34.582031 13.890625 -33.15625 C 11.628906 -31.726562 9.847656 -29.804688 8.546875 -27.390625 C 7.253906 -24.984375 6.609375 -22.316406 6.609375 -19.390625 C 6.609375 -16.460938 7.253906 -13.796875 8.546875 -11.390625 C 9.847656 -8.984375 11.628906 -7.066406 13.890625 -5.640625 C 16.148438 -4.210938 18.742188 -3.5 21.671875 -3.5 Z M 21.671875 -3.5 "/></g></g></g><g fill="#0d1b4c" fill-opacity="1"><g transform="translate(334.374138, 51.834094)"><g><path d="M 30.296875 0 L 26.0625 -11.28125 L 10.34375 -11.28125 L 6.109375 0 L 1.671875 0 L 16.34375 -38.90625 L 20.015625 -38.90625 L 34.734375 0 Z M 11.84375 -15.28125 L 24.5625 -15.28125 L 18.171875 -32.515625 Z M 11.84375 -15.28125 "/></g></g></g><g fill="#0d1b4c" fill-opacity="1"><g transform="translate(388.446835, 51.834094)"><g/></g></g><g fill="#0d1b4c" fill-opacity="1"><g transform="translate(421.679612, 51.834094)"><g><path d="M 30.296875 0 L 26.0625 -11.28125 L 10.34375 -11.28125 L 6.109375 0 L 1.671875 0 L 16.34375 -38.90625 L 20.015625 -38.90625 L 34.734375 0 Z M 11.84375 -15.28125 L 24.5625 -15.28125 L 18.171875 -32.515625 Z M 11.84375 -15.28125 "/></g></g></g><g fill="#0d1b4c" fill-opacity="1"><g transform="translate(475.752309, 51.834094)"><g><path d="M 28.953125 -38.90625 L 33.40625 -38.90625 L 18.5625 0 L 14.890625 0 L 0 -38.90625 L 4.5 -38.90625 L 16.734375 -6.390625 Z M 28.953125 -38.90625 "/></g></g></g><g fill="#0d1b4c" fill-opacity="1"><g transform="translate(526.824035, 51.834094)"><g><path d="M 30.296875 0 L 26.0625 -11.28125 L 10.34375 -11.28125 L 6.109375 0 L 1.671875 0 L 16.34375 -38.90625 L 20.015625 -38.90625 L 34.734375 0 Z M 11.84375 -15.28125 L 24.5625 -15.28125 L 18.171875 -32.515625 Z M 11.84375 -15.28125 "/></g></g></g><g fill="#0d1b4c" fill-opacity="1"><g transform="translate(580.896732, 51.834094)"><g><path d="M 29.171875 -38.90625 L 33.1875 -38.90625 L 33.1875 0 L 29.515625 0 L 7.609375 -31.5625 L 7.609375 0 L 3.609375 0 L 3.609375 -38.90625 L 7.28125 -38.90625 L 29.171875 -7.453125 Z M 29.171875 -38.90625 "/></g></g></g><g fill="#0d1b4c" fill-opacity="1"><g transform="translate(635.358439, 51.834094)"><g><path d="M 21.390625 -3.5625 C 24.097656 -3.5625 26.523438 -4.160156 28.671875 -5.359375 C 30.828125 -6.566406 32.585938 -8.1875 33.953125 -10.21875 L 37.515625 -8.453125 C 35.878906 -5.859375 33.703125 -3.753906 30.984375 -2.140625 C 28.265625 -0.523438 25.21875 0.316406 21.84375 0.390625 L 20.453125 3.109375 C 22.191406 2.921875 23.457031 3.234375 24.25 4.046875 C 25.050781 4.867188 25.453125 5.816406 25.453125 6.890625 C 25.453125 7.671875 25.253906 8.398438 24.859375 9.078125 C 24.472656 9.765625 23.929688 10.316406 23.234375 10.734375 C 22.191406 11.316406 21.050781 11.550781 19.8125 11.4375 C 18.570312 11.332031 17.34375 10.890625 16.125 10.109375 L 17.28125 7.890625 C 18.132812 8.484375 19.113281 8.816406 20.21875 8.890625 C 21.332031 8.960938 22.113281 8.59375 22.5625 7.78125 C 22.820312 7.300781 22.882812 6.828125 22.75 6.359375 C 22.625 5.898438 22.300781 5.578125 21.78125 5.390625 C 21.445312 5.273438 21.03125 5.226562 20.53125 5.25 C 20.03125 5.269531 19.5625 5.503906 19.125 5.953125 L 16.734375 4.28125 L 18.84375 0.21875 C 15.613281 -0.21875 12.75 -1.351562 10.25 -3.1875 C 7.75 -5.03125 5.785156 -7.359375 4.359375 -10.171875 C 2.929688 -12.984375 2.21875 -16.078125 2.21875 -19.453125 C 2.21875 -22.191406 2.695312 -24.753906 3.65625 -27.140625 C 4.625 -29.535156 5.96875 -31.640625 7.6875 -33.453125 C 9.414062 -35.273438 11.445312 -36.703125 13.78125 -37.734375 C 16.113281 -38.773438 18.648438 -39.296875 21.390625 -39.296875 C 24.878906 -39.296875 28.007812 -38.476562 30.78125 -36.84375 C 33.5625 -35.21875 35.804688 -33.070312 37.515625 -30.40625 L 33.953125 -28.625 C 32.585938 -30.65625 30.828125 -32.273438 28.671875 -33.484375 C 26.523438 -34.691406 24.097656 -35.296875 21.390625 -35.296875 C 18.503906 -35.296875 15.921875 -34.582031 13.640625 -33.15625 C 11.359375 -31.726562 9.566406 -29.816406 8.265625 -27.421875 C 6.972656 -25.035156 6.328125 -22.378906 6.328125 -19.453125 C 6.328125 -16.523438 6.972656 -13.859375 8.265625 -11.453125 C 9.566406 -9.046875 11.359375 -7.128906 13.640625 -5.703125 C 15.921875 -4.273438 18.503906 -3.5625 21.390625 -3.5625 Z M 21.390625 -3.5625 "/></g></g></g><g fill="#0d1b4c" fill-opacity="1"><g transform="translate(692.209794, 51.834094)"><g><path d="M 30.296875 0 L 26.0625 -11.28125 L 10.34375 -11.28125 L 6.109375 0 L 1.671875 0 L 16.34375 -38.90625 L 20.015625 -38.90625 L 34.734375 0 Z M 11.84375 -15.28125 L 24.5625 -15.28125 L 18.171875 -32.515625 Z M 11.84375 -15.28125 "/></g></g></g><g fill="#0d1b4c" fill-opacity="1"><g transform="translate(746.282456, 51.834094)"><g><path d="M 15.5625 -38.90625 C 18.601562 -38.90625 21.328125 -38.394531 23.734375 -37.375 C 26.140625 -36.351562 28.191406 -34.953125 29.890625 -33.171875 C 31.597656 -31.398438 32.90625 -29.328125 33.8125 -26.953125 C 34.726562 -24.578125 35.1875 -22.054688 35.1875 -19.390625 C 35.1875 -16.722656 34.722656 -14.210938 33.796875 -11.859375 C 32.867188 -9.515625 31.550781 -7.453125 29.84375 -5.671875 C 28.132812 -3.890625 26.078125 -2.5 23.671875 -1.5 C 21.265625 -0.5 18.5625 0 15.5625 0 L 3.609375 0 L 3.609375 -38.90625 Z M 15.234375 -4 C 18.566406 -4 21.398438 -4.691406 23.734375 -6.078125 C 26.066406 -7.472656 27.84375 -9.335938 29.0625 -11.671875 C 30.289062 -14.003906 30.90625 -16.578125 30.90625 -19.390625 C 30.90625 -22.242188 30.273438 -24.847656 29.015625 -27.203125 C 27.753906 -29.554688 25.957031 -31.425781 23.625 -32.8125 C 21.289062 -34.207031 18.507812 -34.90625 15.28125 -34.90625 L 7.609375 -34.90625 L 7.609375 -4 C 8.347656 -4 9.328125 -4 10.546875 -4 C 11.773438 -4 13.335938 -4 15.234375 -4 Z M 15.234375 -4 "/></g></g></g><g fill="#0d1b4c" fill-opacity="1"><g transform="translate(801.355453, 51.834094)"><g><path d="M 30.296875 0 L 26.0625 -11.28125 L 10.34375 -11.28125 L 6.109375 0 L 1.671875 0 L 16.34375 -38.90625 L 20.015625 -38.90625 L 34.734375 0 Z M 11.84375 -15.28125 L 24.5625 -15.28125 L 18.171875 -32.515625 Z M 11.84375 -15.28125 "/></g></g></g><g fill="#0d1b4c" fill-opacity="1"><g transform="translate(855.458919, 51.834094)"><g/></g></g></g></g></svg>